<?xml version="1.0" encoding="UTF-8"?>
<!DOCTYPE svg PUBLIC "-//W3C//DTD SVG 1.1//EN" "http://www.w3.org/Graphics/SVG/1.1/DTD/svg11.dtd">
<!-- Creator: CorelDRAW -->
<svg xmlns="http://www.w3.org/2000/svg" xml:space="preserve" width="20mm" height="20mm" shape-rendering="geometricPrecision" text-rendering="geometricPrecision" image-rendering="optimizeQuality" fill-rule="evenodd" clip-rule="evenodd"
viewBox="0 0 20 20"
 xmlns:xlink="http://www.w3.org/1999/xlink">
 <g id="Слой_x0020_1">
  <metadata id="CorelCorpID_0Corel-Layer"/>
  <g id="_99872680">
   <path id="_99338024" fill="none" stroke="red" stroke-width="0.7056" d="M17.7594 4.4216l-7.6771 -3.8571c-0.1754,-0.0881 -0.207,-0.061 -0.3326,0.0032l-7.7615 3.9691c-0.1922,0.0982 -0.1358,0.4234 -0.1358,0.4247 -0.0067,3.3449 -0.0639,6.3781 0.0149,9.7222 0.003,0.1296 0.121,0.3755 0.9034,0.8246 1.2066,0.6927 6.4752,3.6802 6.6758,3.8378 0.2006,0.1577 0.7359,0.2176 1.2514,-0.1117 0.5303,-0.3388 6.5895,-3.7351 6.874,-3.9496 0.2846,-0.2146 0.4448,-0.414 0.4449,-0.7257l0.0024 -9.8017c-0.0153,-0.1381 -0.0884,-0.2435 -0.2598,-0.3358z"/>
   <path id="_99337880" fill="none" stroke="black" stroke-width="0.7056" d="M17.0606 5.1233l0.0129 8.2573c0.0003,0.2072 -0.0073,0.3777 -0.0108,0.4876 -0.0029,0.0909 -0.1336,0.1646 -0.2128,0.2301 -0.0791,0.0655 -2.6041,1.4823 -2.8218,1.6213 -0.2116,0.1352 -0.4313,0.1106 -0.5136,0.0459 -0.0824,-0.0647 -2.2451,-1.291 -2.7404,-1.5754 -0.3212,-0.1844 -0.3696,-0.2853 -0.3709,-0.3385 -0.0129,-0.5492 -0.0137,-1.1321 -0.0091,-1.6953l0.0154 -1.8628c0.0015,-0.1861 0.1244,-0.2516 0.2039,-0.2975l2.9594 -1.7066c0.0555,-0.032 0.1573,-0.0543 0.1573,-0.0409l0.0106 2.5032c0,0.0109 -0.9734,0.5422 -1.0199,0.5686 -0.1694,0.0963 -0.1236,0.2889 -0.1236,0.3576 0,0.0688 0.0104,0.5831 0.0138,0.8219 0.0034,0.2388 0.0368,0.1894 0.1376,0.2662 0.1008,0.0768 0.5549,0.3486 0.775,0.4495 0.0757,0.0346 0.1449,0.066 0.2031,0.0681 0.1111,0.0041 0.1822,-0.0498 0.1822,-0.0498 0,0 0.5137,-0.2935 0.743,-0.4311 0.2293,-0.1376 0.1926,-0.266 0.1926,-0.266 0,0 -0.0032,-0.6507 -0.0125,-1.0544 0.0018,-0.0542 -0.0357,-0.1136 -0.0978,-0.1742 -0.3376,-0.1531 -0.9988,-0.5507 -0.9988,-0.5507l-0.0053 -2.509c0.0302,-0.0057 0.0996,0.0179 0.1554,0.0417l0.743 0.4245 0.2104 -0.0572 -0.0009 -4.6226c-0.0001,-0.1079 0.0863,-0.1601 0.1458,-0.1619 0.0599,-0.0018 0.0966,0.0019 0.1451,0.0291l1.795 1.0055c0.1297,0.0726 0.1309,0.1663 0.1367,0.2158z"/>
   <path id="_99337808" fill="none" stroke="black" stroke-width="0.7056" d="M9.5987 7.5842c-0.0103,-0.0862 -0.0425,-0.188 -0.3063,-0.078 -0.2638,0.11 -1.6884,0.936 -1.6884,0.936 0,0 -0.2019,0.055 -0.2019,0.4588 0,0.4037 -0.0058,3.6328 -0.0058,3.6328 0,0 0.0367,0.1285 -0.1926,0.2661 -0.2293,0.1375 -0.743,0.4311 -0.743,0.4311 0,0 -0.1651,0.0825 -0.3853,-0.0184 -0.2201,-0.1009 -0.633,-0.3451 -0.7338,-0.4219 -0.1008,-0.0768 -0.1617,-0.1008 -0.1651,-0.3396 -0.0034,-0.2388 0,-3.7612 0,-3.7612 0,0 0.0092,-0.1009 -0.1743,-0.211 -0.1834,-0.1101 -1.7703,-1.0182 -1.7703,-1.0182 0,0 -0.2645,-0.0782 -0.266,0.1513l-0.02 4.5415c-0.0025,0.5632 -0.0038,1.146 0.0091,1.6953 0.0013,0.0532 0.0497,0.1541 0.3709,0.3385 0.4953,0.2843 2.658,1.5106 2.7404,1.5754 0.0823,0.0647 0.302,0.0893 0.5136,-0.0459 0.2177,-0.1391 2.7426,-1.5558 2.8218,-1.6213 0.0791,-0.0655 0.2098,-0.1392 0.2128,-0.2301 0.0035,-0.1099 0.0121,-0.2804 0.0108,-0.4877l-0.0266 -5.7935z"/>
  </g>
 </g>
</svg>
